<svg width="51" height="30" viewBox="0 0 85 50" fill="currentColor" xmlns="http://www.w3.org/2000/svg">
    <path d="M.5 35.1v1.1h4.1V47h1.3V36.2H10v-1.1zM23.6 35.1V47h8.5v-1.1h-7.2v-4.3h5.6v-1.1h-5.6v-4.2h7.2v-1.1h-8.5zM51 36.6l2.7 6h-5.4zm-.6-1.6-5.3 12h1.3l1.4-3.3H54l1.5 3.3h1.3l-5.3-12zM80.4 35.1l-4.3 5.8-4.3-5.8h-1.2V47h1.2V37l3.9 5.2h.8l3.9-5.2v10h1.2V35.1z" fill="#5f6061"></path>
    <g fill="#ce0e2d">
        <path d="M24.1 16.6c0-.2-.1-.5-.2-.7s-.2-.4-.4-.6L13.2 6.1c-.3-.3-.7-.4-1.2-.4-.4 0-.9.2-1.2.5L.7 15.3c-.2.2-.3.4-.4.6s-.2.5-.2.7v14c0 .2 0 .5.1.7s.2.4.4.6l.6.3c.2.1.4.1.7.1h20.5c.5 0 .9-.2 1.2-.5s.5-.8.5-1.2zm-3 12.8h-18V17.3L12 9.2l9.1 8.1z"></path><path d="m12 15.9-4.1 3.7v5.6h8.3v-5.6zM46.5 32.5h-4.7V9.2h4.1l11.7 14.9V9.2h4.6v23.3h-3.9l-11.8-15zM23.9.1c-3.8 0-7.4 1.3-10.3 3.7l3.3 2.9c1.4-1.1 3.1-1.8 4.9-2.1s3.6-.3 5.3.2 3.3 1.3 4.7 2.5 2.4 2.7 3.1 4.3c.7 1.7 1 3.4 1 5.2-.1 1.8-.6 3.6-1.4 5.1-.9 1.6-2 3-3.5 4-1.5 1.1-3.1 1.8-4.9 2.1v4.4c4.1-.5 7.8-2.6 10.4-5.8s3.9-7.3 3.7-11.4S38 7.4 35 4.5C32 1.7 28 .1 23.9.1zM64.5 9.2v23.3h17.4v-4.3H69.3v-5.1h9.9v-4.2h-9.9v-5.4h12.5V9.2z"></path>
    </g>
</svg>
